<svg width="20" height="20" viewBox="0 0 20 20" xmlns="http://www.w3.org/2000/svg">
<path d="M19.7558 9.41074L10.5891 0.243991C10.4328 0.0877636 10.2209 0 9.99988 0C9.77891 0 9.56698 0.0877636 9.41071 0.243991L0.243961 9.41074C0.127452 9.52728 0.0481125 9.67575 0.0159725 9.83738C-0.0161674 9.99901 0.000335241 10.1665 0.0633942 10.3188C0.126453 10.471 0.233237 10.6012 0.370246 10.6928C0.507256 10.7843 0.668339 10.8332 0.833133 10.8333H1.87481C1.93006 10.8333 1.98305 10.8552 2.02212 10.8943C2.06119 10.9333 2.08314 10.9863 2.08314 11.0416V19.1667C2.08314 19.3877 2.17094 19.5996 2.32722 19.7559C2.48351 19.9122 2.69547 20 2.91648 20H7.70819C7.76345 20 7.81644 19.9781 7.85551 19.939C7.89458 19.8999 7.91653 19.8469 7.91653 19.7917V15.8333C7.91653 15.2808 8.13602 14.7508 8.52673 14.3601C8.91743 13.9694 9.44734 13.7499 9.99988 13.7499C10.5524 13.7499 11.0823 13.9694 11.473 14.3601C11.8637 14.7508 12.0832 15.2808 12.0832 15.8333V19.7917C12.0832 19.8469 12.1052 19.8999 12.1443 19.939C12.1833 19.9781 12.2363 20 12.2916 20H17.0833C17.3043 20 17.5163 19.9122 17.6725 19.7559C17.8288 19.5996 17.9166 19.3877 17.9166 19.1667V11.0416C17.9166 10.9863 17.9386 10.9333 17.9776 10.8943C18.0167 10.8552 18.0697 10.8333 18.125 10.8333H19.1666C19.3314 10.8332 19.4925 10.7843 19.6295 10.6928C19.7665 10.6012 19.8733 10.471 19.9364 10.3188C19.9994 10.1665 20.0159 9.99901 19.9838 9.83738C19.9516 9.67575 19.8723 9.52728 19.7558 9.41074Z"/>
</svg>
