<svg width="20" height="20" viewBox="0 0 20 20" xmlns="http://www.w3.org/2000/svg">
<path d="M18.0488 0H1.95122C1.43372 0 0.937424 0.205574 0.571499 0.571499C0.205574 0.937424 0 1.43372 0 1.95122V18.0488C0 18.5663 0.205574 19.0626 0.571499 19.4285C0.937424 19.7944 1.43372 20 1.95122 20H18.0488C18.5663 20 19.0626 19.7944 19.4285 19.4285C19.7944 19.0626 20 18.5663 20 18.0488V1.95122C20 1.43372 19.7944 0.937424 19.4285 0.571499C19.0626 0.205574 18.5663 0 18.0488 0V0ZM10.7317 14.6341C10.7317 14.7635 10.6803 14.8876 10.5888 14.9791C10.4974 15.0706 10.3733 15.122 10.2439 15.122H5.36585C5.23648 15.122 5.1124 15.0706 5.02092 14.9791C4.92944 14.8876 4.87805 14.7635 4.87805 14.6341V13.6585C4.87805 13.5292 4.92944 13.4051 5.02092 13.3136C5.1124 13.2221 5.23648 13.1707 5.36585 13.1707H10.2439C10.3733 13.1707 10.4974 13.2221 10.5888 13.3136C10.6803 13.4051 10.7317 13.5292 10.7317 13.6585V14.6341ZM15.6098 10.2439C15.6098 10.3733 15.5584 10.4974 15.4669 10.5888C15.3754 10.6803 15.2513 10.7317 15.122 10.7317H5.36585C5.23648 10.7317 5.1124 10.6803 5.02092 10.5888C4.92944 10.4974 4.87805 10.3733 4.87805 10.2439V9.26829C4.87805 9.13892 4.92944 9.01484 5.02092 8.92336C5.1124 8.83188 5.23648 8.78049 5.36585 8.78049H15.122C15.2513 8.78049 15.3754 8.83188 15.4669 8.92336C15.5584 9.01484 15.6098 9.13892 15.6098 9.26829V10.2439ZM15.6098 5.85366C15.6098 5.98303 15.5584 6.10711 15.4669 6.19859C15.3754 6.29007 15.2513 6.34146 15.122 6.34146H5.36585C5.23648 6.34146 5.1124 6.29007 5.02092 6.19859C4.92944 6.10711 4.87805 5.98303 4.87805 5.85366V4.87805C4.87805 4.74868 4.92944 4.6246 5.02092 4.53312C5.1124 4.44164 5.23648 4.39024 5.36585 4.39024H15.122C15.2513 4.39024 15.3754 4.44164 15.4669 4.53312C15.5584 4.6246 15.6098 4.74868 15.6098 4.87805V5.85366Z"/>
</svg>
